<svg width="1280" height="420" viewBox="0 0 1280 420" fill="none" xmlns="http://www.w3.org/2000/svg">
  <defs>
    <linearGradient id="bg" x1="0" y1="0" x2="1280" y2="420" gradientUnits="userSpaceOnUse">
      <stop stop-color="#07111F"/>
      <stop offset="0.52" stop-color="#123C69"/>
      <stop offset="1" stop-color="#0F766E"/>
    </linearGradient>
    <linearGradient id="line" x1="96" y1="324" x2="1184" y2="96" gradientUnits="userSpaceOnUse">
      <stop stop-color="#22D3EE"/>
      <stop offset="0.5" stop-color="#FDE68A"/>
      <stop offset="1" stop-color="#34D399"/>
    </linearGradient>
    <filter id="soft" x="-20%" y="-20%" width="140%" height="140%">
      <feGaussianBlur stdDeviation="18"/>
    </filter>
    <pattern id="grid" width="40" height="40" patternUnits="userSpaceOnUse">
      <path d="M 40 0 L 0 0 0 40" fill="none" stroke="rgba(255,255,255,0.09)" stroke-width="1"/>
    </pattern>
  </defs>

  <rect width="1280" height="420" rx="28" fill="url(#bg)"/>
  <rect width="1280" height="420" rx="28" fill="url(#grid)"/>

  <path d="M96 318 C204 226 276 282 374 198 C494 94 560 206 662 154 C798 84 850 214 970 160 C1068 116 1112 88 1184 102" stroke="url(#line)" stroke-width="7" stroke-linecap="round"/>
  <path d="M96 318 C204 226 276 282 374 198 C494 94 560 206 662 154 C798 84 850 214 970 160 C1068 116 1112 88 1184 102" stroke="#67E8F9" stroke-width="18" stroke-linecap="round" opacity="0.18" filter="url(#soft)"/>

  <g opacity="0.9">
    <circle cx="96" cy="318" r="8" fill="#FDE68A"/>
    <circle cx="374" cy="198" r="8" fill="#FDE68A"/>
    <circle cx="662" cy="154" r="8" fill="#FDE68A"/>
    <circle cx="970" cy="160" r="8" fill="#FDE68A"/>
    <circle cx="1184" cy="102" r="8" fill="#FDE68A"/>
  </g>

  <g font-family="Segoe UI, Arial, sans-serif">
    <text x="72" y="108" fill="#E0F2FE" font-size="24" opacity="0.9">Math • EdTech • AI</text>
    <text x="72" y="178" fill="white" font-size="58" font-weight="800">Nguyễn Cung Hoàng Nam</text>
    <text x="74" y="228" fill="#D1FAE5" font-size="27" font-weight="600">Giáo viên Toán THPT xây dựng công cụ học tập tương tác</text>
    <text x="76" y="292" fill="#FEF3C7" font-size="26">f(x) = Toán học + Công nghệ + Trải nghiệm lớp học tốt hơn</text>

    <text x="824" y="250" fill="rgba(255,255,255,0.18)" font-size="72" font-family="Cambria Math, Georgia, serif">∫ e^x dx</text>
    <text x="930" y="326" fill="rgba(255,255,255,0.22)" font-size="46" font-family="Cambria Math, Georgia, serif">Δ = b² − 4ac</text>
    <text x="872" y="82" fill="rgba(255,255,255,0.18)" font-size="44" font-family="Cambria Math, Georgia, serif">lim x→∞</text>
  </g>
</svg>
