<svg width="1280" height="420" viewBox="0 0 1280 420" fill="none" xmlns="http://www.w3.org/2000/svg">
  <defs>
    <linearGradient id="bg" x1="0" y1="0" x2="1280" y2="420" gradientUnits="userSpaceOnUse">
      <stop stop-color="#07111F"/>
      <stop offset="0.52" stop-color="#123C69"/>
      <stop offset="1" stop-color="#0F766E"/>
    </linearGradient>
    <linearGradient id="line" x1="96" y1="352" x2="1184" y2="178" gradientUnits="userSpaceOnUse">
      <stop stop-color="#22D3EE"/>
      <stop offset="0.5" stop-color="#FDE68A"/>
      <stop offset="1" stop-color="#34D399"/>
    </linearGradient>
    <filter id="soft" x="-20%" y="-20%" width="140%" height="140%">
      <feGaussianBlur stdDeviation="18"/>
    </filter>
    <pattern id="grid" width="40" height="40" patternUnits="userSpaceOnUse">
      <path d="M 40 0 L 0 0 0 40" fill="none" stroke="rgba(255,255,255,0.09)" stroke-width="1"/>
    </pattern>
  </defs>

  <rect width="1280" height="420" rx="28" fill="url(#bg)"/>
  <rect width="1280" height="420" rx="28" fill="url(#grid)"/>

  <path d="M96 352 C220 330 298 372 420 338 C548 310 602 368 728 342 C850 318 906 346 1016 286 C1094 242 1138 204 1184 196" stroke="url(#line)" stroke-width="6" stroke-linecap="round" opacity="0.92"/>
  <path d="M96 352 C220 330 298 372 420 338 C548 310 602 368 728 342 C850 318 906 346 1016 286 C1094 242 1138 204 1184 196" stroke="#67E8F9" stroke-width="16" stroke-linecap="round" opacity="0.12" filter="url(#soft)"/>

  <g opacity="0.82">
    <circle cx="96" cy="352" r="7" fill="#FDE68A"/>
    <circle cx="420" cy="338" r="7" fill="#FDE68A"/>
    <circle cx="728" cy="342" r="7" fill="#FDE68A"/>
    <circle cx="1016" cy="286" r="7" fill="#FDE68A"/>
    <circle cx="1184" cy="196" r="7" fill="#FDE68A"/>
  </g>

  <g font-family="Segoe UI, Arial, sans-serif">
    <rect x="54" y="66" width="720" height="190" rx="22" fill="#07111F" opacity="0.22"/>
    <text x="72" y="108" fill="#E0F2FE" font-size="24" opacity="0.9">Math • EdTech • AI</text>
    <text x="72" y="178" fill="white" font-size="58" font-weight="800">Nguyễn Cung Hoàng Nam</text>
    <text x="74" y="228" fill="#D1FAE5" font-size="27" font-weight="600">Giáo viên Toán THPT xây dựng công cụ học tập tương tác</text>
    <text x="76" y="292" fill="#FEF3C7" font-size="26">f(x) = Toán học + Công nghệ + Trải nghiệm lớp học tốt hơn</text>

    <text x="832" y="244" fill="rgba(255,255,255,0.13)" font-size="72" font-family="Cambria Math, Georgia, serif">∫ e^x dx</text>
    <text x="920" y="330" fill="rgba(255,255,255,0.15)" font-size="46" font-family="Cambria Math, Georgia, serif">Δ = b² − 4ac</text>
    <text x="880" y="86" fill="rgba(255,255,255,0.16)" font-size="44" font-family="Cambria Math, Georgia, serif">lim x→∞</text>
  </g>
</svg>
